
<svg
   style="background:#c0c0c0"
   width="1024" height="768"
   xmlns="http://www.w3.org/2000/svg">
  <rect
     id="BackGround" style="fill:#c0c0c0"
     width="1024" height="768" x="0" y="0" />
  <circle
     id="Hole" fill="#000000"
     cx="984" cy="40" r="40"/>
  <circle
     id="Hole" fill="none"
     cx="40" cy="728" r="200"
     stroke="red" stroke-width="3"/>
  <path
     id="generatedTrail"
     stroke = "#0000ff"
     style="        
        stroke-width:5;
        stroke-dasharray:none;
        stroke-linejoin:round;
        stroke-linecap:round"

     fill="none"
     d="M 40 728 
        Q 472.0 16.50872416091077 
          904.0 16.50872416091077"
      />
  <circle
     id="Mouse" fill="#ff0000"
     cx="947.6109173074534" cy="78.3214517207873" r="40"/>
  <path
     id="subjectTrail" fill="none"
     stroke="#00ff00"  stroke-width="5"
     d="M 40.0 728.0 
        Q 205.62755264641567 455.21629919790695 
          371.25510529283133 287.01708164970916 
        M 371.25510529283133 287.01708164970916 
            l 0 40M 371.25510529283133 327.01708164970916 
        Q 376.51739554715596 321.67308489828423 
          381.7796858014805 316.43466086019185 
        M 381.7796858014805 316.43466086019185 
            l 0 20M 381.7796858014805 336.43466086019185 
        Q 387.0950263712196 331.1434271073053 
          392.4103669409587 325.9599054011011 
        M 392.4103669409587 325.9599054011011 
            l 0 40M 392.4103669409587 365.9599054011011 
        Q 397.779830386404 360.7236030503934 
          403.1492938318493 355.59721744640837 
        M 403.1492938318493 355.59721744640837 
            l 0 40M 403.1492938318493 395.59721744640837 
        Q 593.5140617494848 213.8503416786403 
          783.8788296671203 170.2612099220021 
        M 783.8788296671203 170.2612099220021 
            l 0 -20M 783.8788296671203 150.2612099220021 
        Q 791.1896240289227 148.58720699505201 
          798.5004183907251 147.1169698343873 
        M 798.5004183907251 147.1169698343873 
            l 0 -20M 798.5004183907251 127.1169698343873 
        Q 828.1153554832624 121.16125847534683 
          857.7302925757996 118.5492194711887 
        M 857.7302925757996 118.5492194711887 
            l 0 -20M 857.7302925757996 98.5492194711887 
        Q 880.1843101404573 96.5687739448088 
          902.6383277051151 96.51049136739638 
        M 902.6383277051151 96.51049136739638 
            l 0 -20M 902.6383277051151 76.51049136739638 
        Q 925.1246225062844 76.45212500985286 
          947.6109173074534 78.3214517207873 
        "
     style="stroke-width:3;
            stroke-dasharray:none;
            stroke-linejoin:round;
            stroke-linecap:round"/>
</svg>
