
<svg
   style="background:#c0c0c0"
   width="1024" height="768"
   xmlns="http://www.w3.org/2000/svg">
  <rect
     id="BackGround" style="fill:#c0c0c0"
     width="1024" height="768" x="0" y="0" />
  <circle
     id="Hole" fill="#000000"
     cx="984" cy="40" r="40"/>
  <circle
     id="Hole" fill="none"
     cx="40" cy="728" r="200"
     stroke="red" stroke-width="3"/>
  <path
     id="generatedTrail"
     stroke = "#0000ff"
     style="        
        stroke-width:5;
        stroke-dasharray:none;
        stroke-linejoin:round;
        stroke-linecap:round"

     fill="none"
     d="M 40 728 
        Q 512.0 230.1807432667675 
          984.0 230.1807432667675"
      />
  <circle
     id="Mouse" fill="#ff0000"
     cx="933.7140919393394" cy="51.5933468302039" r="40"/>
  <path
     id="subjectTrail" fill="none"
     stroke="#00ff00"  stroke-width="5"
     d="M 40.0 728.0 
        Q 209.2648760776864 549.4760279660243 
          378.5297521553728 434.97289915922477 
        M 378.5297521553728 434.97289915922477 
            l 0 -40M 378.5297521553728 394.97289915922477 
        Q 384.74187062537766 390.7705683637466 
          390.95398909538255 386.65446930911645 
        M 390.95398909538255 386.65446930911645 
            l 0 -20M 390.95398909538255 366.65446930911645 
        Q 397.2060996333015 362.5118718363172 
          403.45821017122046 358.45661995504986 
        M 403.45821017122046 358.45661995504986 
            l 0 -20M 403.45821017122046 338.45661995504986 
        Q 416.0831251736768 330.2678315444737 
          428.70804017613324 322.43520270575937 
        M 428.70804017613324 322.43520270575937 
            l 0 -20M 428.70804017613324 302.43520270575937 
        Q 441.49481283584424 294.5021556896764 
          454.2815854955552 286.93445906953866 
        M 454.2815854955552 286.93445906953866 
            l 0 -20M 454.2815854955552 266.93445906953866 
        Q 480.34294809122645 251.51035707913843 
          506.4043106868977 237.6039411033371 
        M 506.4043106868977 237.6039411033371 
            l 0 -20M 506.4043106868977 217.6039411033371 
        Q 675.3685432174764 127.44415402480064 
          844.332775748055 101.07798807695377 
        M 844.332775748055 101.07798807695377 
            l 0 -20M 844.332775748055 81.07798807695377 
        Q 866.6151839733418 77.60091092170879 
          888.8975921986287 75.23329452963077 
        M 888.8975921986287 75.23329452963077 
            l 0 -20M 888.8975921986287 55.23329452963077 
        Q 911.305842068984 52.85230683860436 
          933.7140919393394 51.5933468302039 
        "
     style="stroke-width:3;
            stroke-dasharray:none;
            stroke-linejoin:round;
            stroke-linecap:round"/>
</svg>
