
<svg
   style="background:#c0c0c0"
   width="1024" height="768"
   xmlns="http://www.w3.org/2000/svg">
  <rect
     id="BackGround" style="fill:#c0c0c0"
     width="1024" height="768" x="0" y="0" />
  <circle
     id="Hole" fill="#000000"
     cx="984" cy="40" r="40"/>
  <circle
     id="Hole" fill="none"
     cx="40" cy="728" r="200"
     stroke="red" stroke-width="3"/>
  <path
     id="generatedTrail"
     stroke = "#0000ff"
     style="        
        stroke-width:5;
        stroke-dasharray:none;
        stroke-linejoin:round;
        stroke-linecap:round"

     fill="none"
     d="M 40 728 
        Q 40.0 500.0 
          984.0 273.6026420807563"
      />
  <circle
     id="Mouse" fill="#ff0000"
     cx="943.2039707306229" cy="63.495479852287986" r="40"/>
  <path
     id="subjectTrail" fill="none"
     stroke="#00ff00"  stroke-width="5"
     d="M 40.0 728.0 
        Q 40.0 605.8313029311502 
          311.0330077151505 484.1227424125526 
        M 311.0330077151505 484.1227424125526 
            l 0 -20M 311.0330077151505 464.1227424125526 
        Q 324.57571343162414 458.04133102958457 
          338.7951074956504 451.9610684699442 
        M 338.7951074956504 451.9610684699442 
            l 0 -20M 338.7951074956504 431.9610684699442 
        Q 352.45499962063394 426.12005089336645 
          366.7393753739811 420.2800935114302 
        M 366.7393753739811 420.2800935114302 
            l 0 -40M 366.7393753739811 380.2800935114302 
        Q 380.4996057177878 374.65442528755784 
          394.83933138228525 369.02974088104406 
        M 394.83933138228525 369.02974088104406 
            l 0 -20M 394.83933138228525 349.02974088104406 
        Q 415.43963572366476 340.9493763532018 
          437.2358969430609 332.8710422181768 
        M 437.2358969430609 332.8710422181768 
            l 0 -20M 437.2358969430609 312.8710422181768 
        Q 458.01459487897773 305.16984690181135 
          479.8801892692046 297.4704968248475 
        M 479.8801892692046 297.4704968248475 
            l 0 -20M 479.8801892692046 277.4704968248475 
        Q 500.8074331899771 270.101560302177 
          522.7302880721049 262.7343140422425 
        M 522.7302880721049 262.7343140422425 
            l 0 -20M 522.7302880721049 242.7343140422425 
        Q 614.8854710509266 211.7652668636386 
          724.633454729653 180.82608723028892 
        M 724.633454729653 180.82608723028892 
            l 0 -20M 724.633454729653 160.82608723028892 
        Q 731.8520915376106 158.79107306945377 
          739.1468401934558 156.7561881247736 
        M 739.1468401934558 156.7561881247736 
            l 0 -20M 739.1468401934558 136.7561881247736 
        Q 753.5266320649325 132.74491599362818 
          768.2021821410948 128.73414597534787 
        M 768.2021821410948 128.73414597534787 
            l 0 -20M 768.2021821410948 108.73414597534787 
        Q 850.9963639897169 86.10682226188129 
          943.2039707306229 63.495479852287986 
        "
     style="stroke-width:3;
            stroke-dasharray:none;
            stroke-linejoin:round;
            stroke-linecap:round"/>
</svg>
