
<svg
   style="background:#c0c0c0"
   width="1024" height="768"
   xmlns="http://www.w3.org/2000/svg">
  <rect
     id="BackGround" style="fill:#c0c0c0"
     width="1024" height="768" x="0" y="0" />
  <circle
     id="Hole" fill="#000000"
     cx="984" cy="40" r="40"/>
  <circle
     id="Hole" fill="none"
     cx="40" cy="728" r="200"
     stroke="red" stroke-width="3"/>
  <path
     id="generatedTrail"
     stroke = "#0000ff"
     style="        
        stroke-width:5;
        stroke-dasharray:none;
        stroke-linejoin:round;
        stroke-linecap:round"

     fill="none"
     d="M 40 728 
        Q 512.0 728.0 
          984.0 211.63213393269865"
      />
  <circle
     id="Mouse" fill="#ff0000"
     cx="883.0393789020377" cy="36.17667384446355" r="40"/>
  <path
     id="subjectTrail" fill="none"
     stroke="#00ff00"  stroke-width="5"
     d="M 40.0 728.0 
        Q 173.08616935886872 728.0 
          306.17233871773743 686.9473628699775 
        M 306.17233871773743 686.9473628699775 
            l 0 -20M 306.17233871773743 666.9473628699775 
        Q 313.3391197360255 664.7366503522796 
          320.50590075431353 662.4068894572406 
        M 320.50590075431353 662.4068894572406 
            l 0 -20M 320.50590075431353 642.4068894572406 
        Q 327.6384932835609 640.0882424785643 
          334.7710858128082 637.6516802326969 
        M 334.7710858128082 637.6516802326969 
            l 0 -20M 334.7710858128082 617.6516802326969 
        Q 341.86839234053025 615.2271720245124 
          348.9656988682522 612.6859123521533 
        M 348.9656988682522 612.6859123521533 
            l 0 -20M 348.9656988682522 592.6859123521533 
        Q 370.0362440011508 585.1413986113834 
          391.10678913404945 576.5678579083132 
        M 391.10678913404945 576.5678579083132 
            l 0 -20M 391.10678913404945 556.5678579083132 
        Q 404.96116889241347 550.9305529394604 
          418.8155486507775 544.8483613078074 
        M 418.8155486507775 544.8483613078074 
            l 0 -20M 418.8155486507775 524.8483613078074 
        Q 439.2954094858453 515.8575266143041 
          459.7752703209132 505.89455102547686 
        M 459.7752703209132 505.89455102547686 
            l 0 -20M 459.7752703209132 485.89455102547686 
        Q 544.1591844111095 444.84374101553885 
          628.543098501306 387.28872854239523 
        M 628.543098501306 387.28872854239523 
            l 0 -40M 628.543098501306 347.28872854239523 
        Q 634.7391020067548 343.0626735781923 
          640.9351055122038 338.74763736031684 
        M 640.9351055122038 338.74763736031684 
            l 0 -40M 640.9351055122038 298.74763736031684 
        Q 647.0896711691797 294.4614593922464 
          653.2442368261554 290.0874863744942 
        M 653.2442368261554 290.0874863744942 
            l 0 -20M 653.2442368261554 270.0874863744942 
        Q 659.3576245325382 265.74277801242346 
          665.4710122389212 261.3114454797744 
        M 665.4710122389212 261.3114454797744 
            l 0 -20M 665.4710122389212 241.31144547977442 
        Q 677.5753963094289 232.5374966488639 
          689.6797803799366 223.4239533543054 
        M 689.6797803799366 223.4239533543054 
            l 0 -20M 689.6797803799366 203.4239533543054 
        Q 786.3595796409871 130.63251422428038 
          883.0393789020377 36.17667384446355 
        "
     style="stroke-width:3;
            stroke-dasharray:none;
            stroke-linejoin:round;
            stroke-linecap:round"/>
</svg>
