
<svg
   style="background:#c0c0c0"
   width="1024" height="768"
   xmlns="http://www.w3.org/2000/svg">
  <rect
     id="BackGround" style="fill:#c0c0c0"
     width="1024" height="768" x="0" y="0" />
  <circle
     id="Hole" fill="#000000"
     cx="984" cy="40" r="40"/>
  <circle
     id="Hole" fill="none"
     cx="40" cy="728" r="200"
     stroke="red" stroke-width="3"/>
  <path
     id="generatedTrail"
     stroke = "#0000ff"
     style="        
        stroke-width:5;
        stroke-dasharray:none;
        stroke-linejoin:round;
        stroke-linecap:round"

     fill="none"
     d="M 40 728 
        Q 472.0 728.0 
          904.0 6.000485393008471"
      />
  <circle
     id="Mouse" fill="#ff0000"
     cx="988.1697231362957" cy="118.47597247005436" r="40"/>
  <path
     id="subjectTrail" fill="none"
     stroke="#00ff00"  stroke-width="5"
     d="M 40.0 728.0 
        Q 204.8478457302633 728.0 
          369.69569146052663 622.8677487986852 
        M 369.69569146052663 622.8677487986852 
            l 0 -20M 369.69569146052663 602.8677487986852 
        Q 373.9113434300604 600.1792030074132 
          378.12699539959414 597.4219030670655 
        M 378.12699539959414 597.4219030670655 
            l 0 -40M 378.12699539959414 557.4219030670655 
        Q 390.58727713089365 549.2720998283918 
          403.0475588621932 540.5216415353144 
        M 403.0475588621932 540.5216415353144 
            l 0 -40M 403.0475588621932 500.5216415353144 
        Q 407.1393537287783 497.6481045562957 
          411.2311485953634 494.7097941140064 
        M 411.2311485953634 494.7097941140064 
            l 0 -20M 411.2311485953634 474.7097941140064 
        Q 427.29617415482323 463.1735285151401 
          443.36119971428303 450.6387992776072 
        M 443.36119971428303 450.6387992776072 
            l 0 -20M 443.36119971428303 430.6387992776072 
        Q 466.5828693255178 412.5201016170935 
          489.80453893675246 392.3152022537072 
        M 489.80453893675246 392.3152022537072 
            l 0 20M 489.80453893675246 412.3152022537072 
        Q 501.03945657875136 402.5398336384077 
          512.2743742207502 392.27613975376926 
        M 512.2743742207502 392.27613975376926 
            l 0 20M 512.2743742207502 412.27613975376926 
        Q 515.9658647875376 408.90376708822345 
          519.6573553543249 405.47867472174914 
        M 519.6573553543249 405.47867472174914 
            l 0 60M 519.6573553543249 465.47867472174914 
        Q 523.3226693317868 462.0778698983842 
          526.9879833092486 458.6250904005374 
        M 526.9879833092486 458.6250904005374 
            l 0 20M 526.9879833092486 478.6250904005374 
        Q 534.2414402540825 471.79222762762447 
          541.4948971989164 464.75582030071047 
        M 541.4948971989164 464.75582030071047 
            l 0 20M 541.4948971989164 484.75582030071047 
        Q 548.647719166166 477.81703658954314 
          555.8005411334155 470.68031712735444 
        M 555.8005411334155 470.68031712735444 
            l 0 40M 555.8005411334155 510.68031712735444 
        Q 559.3400568913754 507.1487695630204 
          562.8795726493352 503.5687537740254 
        M 562.8795726493352 503.5687537740254 
            l 0 20M 562.8795726493352 523.5687537740255 
        Q 583.6210003591276 502.58999742285835 
          604.3624280689202 479.9468832307668 
        M 604.3624280689202 479.9468832307668 
            l 0 -40M 604.3624280689202 439.9468832307668 
        Q 621.0331091283709 421.74774379973974 
          637.7037901878216 402.47343694465417 
        M 637.7037901878216 402.47343694465417 
            l 0 -40M 637.7037901878216 362.47343694465417 
        Q 640.9746632493695 358.69171915835125 
          644.2455363109175 354.868611241898 
        M 644.2455363109175 354.868611241898 
            l 0 -40M 644.2455363109175 314.868611241898 
        Q 647.4960106859983 311.06934600544196 
          650.746485061079 307.2292052852526 
        M 650.746485061079 307.2292052852526 
            l 0 -20M 650.746485061079 287.2292052852526 
        Q 672.952179686052 260.99519070474037 
          695.1578743110248 232.85352857877 
        M 695.1578743110248 232.85352857877 
            l 0 20M 695.1578743110248 252.85352857877 
        Q 698.2551155046228 248.9283410687675 
          701.352356698221 244.96604112243398 
        M 701.352356698221 244.96604112243398 
            l 0 20M 701.352356698221 264.966041122434 
        Q 704.4316228613645 261.026736628425 
          707.5108890245082 257.0507492167191 
        M 707.5108890245082 257.0507492167191 
            l 0 20M 707.5108890245082 277.0507492167191 
        Q 713.6164825512984 269.16712964070683 
          719.7220760780885 261.139290165237 
        M 719.7220760780885 261.139290165237 
            l 0 40M 719.7220760780885 301.139290165237 
        Q 740.5604848742729 273.74025025110564 
          761.3988936704573 244.66125197031946 
        M 761.3988936704573 244.66125197031946 
            l 0 -40M 761.3988936704573 204.66125197031946 
        Q 767.2083227409362 196.55447282009294 
          773.017751811415 188.31712579992237 
        M 773.017751811415 188.31712579992237 
            l 0 -20M 773.017751811415 168.31712579992237 
        Q 781.6178462117424 156.12281873079712 
          790.2179406120698 143.64237345647317 
        M 790.2179406120698 143.64237345647317 
            l 0 20M 790.2179406120698 163.64237345647317 
        Q 793.0550158466596 159.52521374214615 
          795.8920910812492 155.37691456492425 
        M 795.8920910812492 155.37691456492425 
            l 0 60M 795.8920910812492 215.37691456492425 
        Q 798.7146738838866 211.2498058527317 
          801.537256686524 207.09187500014872 
        M 801.537256686524 207.09187500014872 
            l 0 40M 801.537256686524 247.09187500014872 
        Q 839.6302465728705 190.9773058305296 
          877.7232364592171 129.2489030707966 
        M 877.7232364592171 129.2489030707966 
            l 0 20M 877.7232364592171 149.2489030707966 
        Q 880.3490352927244 144.99388479986612 
          882.9748341262317 140.71219227298548 
        M 882.9748341262317 140.71219227298548 
            l 0 40M 882.9748341262317 180.71219227298548 
        Q 885.5887556018562 176.44986725965427 
          888.2026770774806 172.16110875759387 
        M 888.2026770774806 172.16110875759387 
            l 0 40M 888.2026770774806 212.16110875759387 
        Q 890.8048613308551 207.89160795404675 
          893.4070455842296 203.59591051598994 
        M 893.4070455842296 203.59591051598994 
            l 0 80M 893.4070455842296 283.59591051598994 
        Q 940.7883843602627 205.37858392662122 
          988.1697231362957 118.47597247005436 
        "
     style="stroke-width:3;
            stroke-dasharray:none;
            stroke-linejoin:round;
            stroke-linecap:round"/>
</svg>
