
<svg
   style="background:#c0c0c0"
   width="1024" height="768"
   xmlns="http://www.w3.org/2000/svg">
  <rect
     id="BackGround" style="fill:#c0c0c0"
     width="1024" height="768" x="0" y="0" />
  <circle
     id="Hole" fill="#000000"
     cx="984" cy="40" r="40"/>
  <circle
     id="Hole" fill="none"
     cx="40" cy="728" r="200"
     stroke="red" stroke-width="3"/>
  <path
     id="generatedTrail"
     stroke = "#0000ff"
     style="        
        stroke-width:5;
        stroke-dasharray:none;
        stroke-linejoin:round;
        stroke-linecap:round"

     fill="none"
     d="M 40 728 
        Q 512.0 401.4060710616912 
          984.0 401.4060710616912"
      />
  <circle
     id="Mouse" fill="#ff0000"
     cx="988.3471392830911" cy="401.4129968821562" r="40"/>
  <path
     id="subjectTrail" fill="none"
     stroke="#00ff00"  stroke-width="5"
     d="M 40.0 728.0 
        Q 236.6664157028851 591.9193699266526 
          433.3328314057702 512.5389300293973 
        M 433.3328314057702 512.5389300293973 
            l 0 -40M 433.3328314057702 472.5389300293973 
        Q 442.616830414157 468.79163071213713 
          451.90082942254367 465.1706869327762 
        M 451.90082942254367 465.1706869327762 
            l 0 -20M 451.90082942254367 445.1706869327762 
        Q 465.90759464083254 439.70777064634444 
          479.9143598591214 434.53246159579004 
        M 479.9143598591214 434.53246159579004 
            l 0 -20M 479.9143598591214 414.53246159579004 
        Q 484.60445256179287 412.79953619625655 
          489.2945452644643 411.09885762195836 
        M 489.2945452644643 411.09885762195836 
            l 0 -20M 489.2945452644643 391.09885762195836 
        Q 498.70588737314534 387.68620271419775 
          508.1172294818263 384.40339340457376 
        M 508.1172294818263 384.40339340457376 
            l 0 -20M 508.1172294818263 364.40339340457376 
        Q 546.1611721286027 351.1331278405967 
          584.2051147753793 339.98461684854396 
        M 584.2051147753793 339.98461684854396 
            l 0 20M 584.2051147753793 359.98461684854396 
        Q 593.8105811422529 357.16980219147376 
          603.4160475091264 354.49024493021693 
        M 603.4160475091264 354.49024493021693 
            l 0 60M 603.4160475091264 414.49024493021693 
        Q 608.2321637388347 413.14673294220165 
          613.048279968543 411.837224016312 
        M 613.048279968543 411.837224016312 
            l 0 40M 613.048279968543 451.837224016312 
        Q 617.8731091026326 450.52534603919656 
          622.697938236722 449.24759426634193 
        M 622.697938236722 449.24759426634193 
            l 0 40M 622.697938236722 489.24759426634193 
        Q 632.3730811084536 486.68534167388634 
          642.048223980185 484.2603158649398 
        M 642.048223980185 484.2603158649398 
            l 0 20M 642.048223980185 504.2603158649398 
        Q 735.3814356416045 480.8668166565595 
          828.7146473030241 470.24348310446453 
        M 828.7146473030241 470.24348310446453 
            l 0 -20M 828.7146473030241 450.24348310446453 
        Q 833.6825702658905 449.67802626700893 
          838.650493228757 449.14874986716086 
        M 838.650493228757 449.14874986716086 
            l 0 -40M 838.650493228757 409.14874986716086 
        Q 913.4988162559241 401.1745016264775 
          988.3471392830911 401.4129968821562 
        "
     style="stroke-width:3;
            stroke-dasharray:none;
            stroke-linejoin:round;
            stroke-linecap:round"/>
</svg>
