
<svg
   style="background:#c0c0c0"
   width="1024" height="768"
   xmlns="http://www.w3.org/2000/svg">
  <rect
     id="BackGround" style="fill:#c0c0c0"
     width="1024" height="768" x="0" y="0" />
  <circle
     id="Hole" fill="#000000"
     cx="984" cy="40" r="40"/>
  <circle
     id="Hole" fill="none"
     cx="40" cy="728" r="200"
     stroke="red" stroke-width="3"/>
  <path
     id="generatedTrail"
     stroke = "#0000ff"
     style="        
        stroke-width:5;
        stroke-dasharray:none;
        stroke-linejoin:round;
        stroke-linecap:round"

     fill="none"
     d="M 40 728 
        Q 472.0 3.052651292493909 
          904.0 3.052651292493909"
      />
  <circle
     id="Mouse" fill="#ff0000"
     cx="503.3241767409544" cy="38.959522765892785" r="40"/>
  <path
     id="subjectTrail" fill="none"
     stroke="#00ff00"  stroke-width="5"
     d="M 40.0 728.0 
        Q 104.81983581242972 619.2246108428778 
          169.6396716248594 526.7705246153802 
        M 169.6396716248594 526.7705246153802 
            l 0 -20M 169.6396716248594 506.77052461538017 
        Q 172.5100132066207 502.676487585258 
          175.38035478838202 498.6144546933517 
        M 175.38035478838202 498.6144546933517 
            l 0 -20M 175.38035478838202 478.6144546933517 
        Q 181.16654743149027 470.42598507546415 
          186.95274007459852 462.3675697677307 
        M 186.95274007459852 462.3675697677307 
            l 0 -20M 186.95274007459852 442.3675697677307 
        Q 195.74885699740472 430.1172408154478 
          204.5449739202109 418.167464788556 
        M 204.5449739202109 418.167464788556 
            l 0 -20M 204.5449739202109 398.167464788556 
        Q 210.4893990364463 390.0917935155347 
          216.43382415268164 382.15338688814717 
        M 216.43382415268164 382.15338688814717 
            l 0 -20M 216.43382415268164 362.15338688814717 
        Q 225.4753942333491 350.0789375600992 
          234.5169643140166 338.3220488789241 
        M 234.5169643140166 338.3220488789241 
            l 0 -20M 234.5169643140166 318.3220488789241 
        Q 249.93497015050912 298.27378550341444 
          265.3529759870016 279.14893385085725 
        M 265.3529759870016 279.14893385085725 
            l 0 20M 265.3529759870016 299.14893385085725 
        Q 268.491089295205 295.2563453977997 
          271.6292026034083 291.40201088837176 
        M 271.6292026034083 291.40201088837176 
            l 0 40M 271.6292026034083 331.40201088837176 
        Q 274.78608254215436 327.5246265828969 
          277.9429624809004 323.6859551236799 
        M 277.9429624809004 323.6859551236799 
            l 0 20M 277.9429624809004 343.6859551236799 
        Q 281.11887299188567 339.8241430585719 
          284.2947835028709 336.00151199070217 
        M 284.2947835028709 336.00151199070217 
            l 0 40M 284.2947835028709 376.00151199070217 
        Q 293.93940248570743 364.3929291814469 
          303.58402146854394 353.1456806167502 
        M 303.58402146854394 353.1456806167502 
            l 0 20M 303.58402146854394 373.1456806167502 
        Q 310.1139529839203 365.53068172518334 
          316.64388449929663 358.08131940236075 
        M 316.64388449929663 358.08131940236075 
            l 0 20M 316.64388449929663 378.08131940236075 
        Q 333.336256062839 359.0386198715616 
          350.0286276263814 341.07828862723215 
        M 350.0286276263814 341.07828862723215 
            l 0 -20M 350.0286276263814 321.07828862723215 
        Q 353.43251667206397 317.4158387143074 
          356.8364057177465 313.79839680634717 
        M 356.8364057177465 313.79839680634717 
            l 0 -20M 356.8364057177465 293.79839680634717 
        Q 360.2628223610717 290.15701396649854 
          363.6892390043968 286.56123684639266 
        M 363.6892390043968 286.56123684639266 
            l 0 -20M 363.6892390043968 266.56123684639266 
        Q 367.13850027820223 262.94148593437865 
          370.5877615520076 259.3679508949437 
        M 370.5877615520076 259.3679508949437 
            l 0 -20M 370.5877615520076 239.3679508949437 
        Q 374.0601878390258 235.77041622781059 
          377.5326141260441 232.2197202833246 
        M 377.5326141260441 232.2197202833246 
            l 0 -20M 377.5326141260441 212.2197202833246 
        Q 381.0285289448951 208.64500636759118 
          384.5244437637459 205.11776697995367 
        M 384.5244437637459 205.11776697995367 
            l 0 -20M 384.5244437637459 185.11776697995367 
        Q 388.04417352424525 181.56649926080672 
          391.56390328474475 178.0633550867566 
        M 391.56390328474475 178.0633550867566 
            l 0 -20M 391.56390328474475 158.0633550867566 
        Q 395.1077770097031 154.53618071885955 
          398.6516507346614 151.05779237773095 
        M 398.6516507346614 151.05779237773095 
            l 0 -20M 398.6516507346614 131.05779237773095 
        Q 450.98791373780784 79.68862372866391 
          503.3241767409544 38.959522765892785 
        "
     style="stroke-width:3;
            stroke-dasharray:none;
            stroke-linejoin:round;
            stroke-linecap:round"/>
</svg>
