
<svg
   style="background:#c0c0c0"
   width="1024" height="768"
   xmlns="http://www.w3.org/2000/svg">
  <rect
     id="BackGround" style="fill:#c0c0c0"
     width="1024" height="768" x="0" y="0" />
  <circle
     id="Hole" fill="#000000"
     cx="984" cy="40" r="40"/>
  <circle
     id="Hole" fill="none"
     cx="40" cy="728" r="200"
     stroke="red" stroke-width="3"/>
  <path
     id="generatedTrail"
     stroke = "#0000ff"
     style="        
        stroke-width:5;
        stroke-dasharray:none;
        stroke-linejoin:round;
        stroke-linecap:round"

     fill="none"
     d="M 40 728 
        Q 472.0 728.0 
          904.0 18.831141308198944"
      />
  <circle
     id="Mouse" fill="#ff0000"
     cx="944.2149737719552" cy="71.27808147966098" r="40"/>
  <path
     id="subjectTrail" fill="none"
     stroke="#00ff00"  stroke-width="5"
     d="M 40.0 728.0 
        Q 205.1384551399227 728.0 
          370.2769102798454 624.3716465363393 
        M 370.2769102798454 624.3716465363393 
            l 0 -20M 370.2769102798454 604.3716465363393 
        Q 374.5120904093899 601.7139691160507 
          378.74727053893434 598.9881322680166 
        M 378.74727053893434 598.9881322680166 
            l 0 -20M 378.74727053893434 578.9881322680166 
        Q 391.26890173111315 570.928988935946 
          403.790532923292 562.274040829605 
        M 403.790532923292 562.274040829605 
            l 0 -20M 403.790532923292 542.274040829605 
        Q 411.98664213901253 536.6088923479701 
          420.182751354733 530.6884751252513 
        M 420.182751354733 530.6884751252513 
            l 0 -20M 420.182751354733 510.68847512525133 
        Q 440.1549305142831 496.2616745105613 
          460.1271096738331 480.31910472670756 
        M 460.1271096738331 480.31910472670756 
            l 0 -20M 460.1271096738331 460.31910472670756 
        Q 546.7604660790714 391.16499194479985 
          633.3938224843097 293.4906872420506 
        M 633.3938224843097 293.4906872420506 
            l 0 40M 633.3938224843097 333.4906872420506 
        Q 636.711612480722 329.7500630241285 
          640.0294024771345 325.9676095685557 
        M 640.0294024771345 325.9676095685557 
            l 0 20M 640.0294024771345 345.9676095685557 
        Q 653.0965413851461 331.07039040444226 
          666.1636802931577 315.524322929373 
        M 666.1636802931577 315.524322929373 
            l 0 40M 666.1636802931577 355.524322929373 
        Q 672.5787412060067 347.89227964048695 
          678.9938021188559 340.1038554431305 
        M 678.9938021188559 340.1038554431305 
            l 0 20M 678.9938021188559 360.1038554431305 
        Q 724.817152370474 304.47044918991764 
          770.6405026220922 240.85790745220328 
        M 770.6405026220922 240.85790745220328 
            l 0 20M 770.6405026220922 260.8579074522033 
        Q 773.5629636787656 256.8009108571557 
          776.4854247354391 252.7114594104718 
        M 776.4854247354391 252.7114594104718 
            l 0 20M 776.4854247354391 272.7114594104718 
        Q 826.6479350614925 202.51817147811553 
          876.8104453875458 122.76306083354116 
        M 876.8104453875458 122.76306083354116 
            l 0 20M 876.8104453875458 142.76306083354115 
        Q 879.4724718119663 138.53061292297136 
          882.1344982363869 134.27123683950407 
        M 882.1344982363869 134.27123683950407 
            l 0 20M 882.1344982363869 154.27123683950407 
        Q 884.7844330724886 150.0312079051199 
          887.4343679085902 145.7644948712176 
        M 887.4343679085902 145.7644948712176 
            l 0 20M 887.4343679085902 165.7644948712176 
        Q 915.8246708402727 120.05270079055829 
          944.2149737719552 71.27808147966098 
        "
     style="stroke-width:3;
            stroke-dasharray:none;
            stroke-linejoin:round;
            stroke-linecap:round"/>
</svg>
