
<svg
   style="background:#c0c0c0"
   width="1024" height="768"
   xmlns="http://www.w3.org/2000/svg">
  <rect
     id="BackGround" style="fill:#c0c0c0"
     width="1024" height="768" x="0" y="0" />
  <circle
     id="Hole" fill="#000000"
     cx="984" cy="40" r="40"/>
  <circle
     id="Hole" fill="none"
     cx="40" cy="728" r="200"
     stroke="red" stroke-width="3"/>
  <path
     id="generatedTrail"
     stroke = "#0000ff"
     style="        
        stroke-width:5;
        stroke-dasharray:none;
        stroke-linejoin:round;
        stroke-linecap:round"

     fill="none"
     d="M 40 728 
        Q 472.0 26.759457913554655 
          904.0 26.759457913554655"
      />
  <circle
     id="Mouse" fill="#ff0000"
     cx="951.4429329597644" cy="88.87383571753975" r="40"/>
  <path
     id="subjectTrail" fill="none"
     stroke="#00ff00"  stroke-width="5"
     d="M 40.0 728.0 
        Q 181.80438874364046 497.8171610351216 
          323.60877748728086 343.19204609498945 
        M 323.60877748728086 343.19204609498945 
            l 0 20M 323.60877748728086 363.19204609498945 
        Q 330.38915411916594 355.7986464595382 
          337.1695307510511 348.5779924900238 
        M 337.1695307510511 348.5779924900238 
            l 0 20M 337.1695307510511 368.5779924900238 
        Q 390.9634067636428 311.29106206505423 
          444.75728277623455 264.87752747748914 
        M 444.75728277623455 264.87752747748914 
            l 0 20M 444.75728277623455 284.87752747748914 
        Q 452.3553267139845 278.32190997522827 
          459.95337065173436 271.9832142354827 
        M 459.95337065173436 271.9832142354827 
            l 0 20M 459.95337065173436 291.9832142354827 
        Q 463.7927387658679 288.7802074474514 
          467.6321068800015 285.63258908630394 
        M 467.6321068800015 285.63258908630394 
            l 0 40M 467.6321068800015 325.63258908630394 
        Q 471.4987734440873 322.4625907137206 
          475.3654400081731 319.3487712072213 
        M 475.3654400081731 319.3487712072213 
            l 0 20M 475.3654400081731 339.3487712072213 
        Q 638.7813234670028 207.75025937478733 
          802.1972069258327 176.49497265875326 
        M 802.1972069258327 176.49497265875326 
            l 0 -20M 802.1972069258327 156.49497265875326 
        Q 812.0351628309861 154.61334324790877 
          821.8731187361394 153.09538533594431 
        M 821.8731187361394 153.09538533594431 
            l 0 -20M 821.8731187361394 133.09538533594431 
        Q 851.6861069285249 128.49535848664436 
          881.4990951209102 127.23505534369642 
        M 881.4990951209102 127.23505534369642 
            l 0 -20M 881.4990951209102 107.23505534369642 
        Q 901.4927027408078 106.38985303255535 
          921.4863103607054 107.04669194679532 
        M 921.4863103607054 107.04669194679532 
            l 0 -20M 921.4863103607054 87.04669194679532 
        Q 936.4646216602349 87.53876610960624 
          951.4429329597644 88.87383571753975 
        "
     style="stroke-width:3;
            stroke-dasharray:none;
            stroke-linejoin:round;
            stroke-linecap:round"/>
</svg>
