
<svg
   style="background:#404040"
   width="1024" height="768"
   xmlns="http://www.w3.org/2000/svg">
  <rect
     id="BackGround" style="fill:#404040"
     width="1024" height="768" x="0" y="0" />
  <circle
     id="Hole" fill="#c0c0c0"
     cx="984" cy="40" r="40"/>
  <circle
     id="Hole" fill="none"
     cx="40" cy="728" r="200"
     stroke="red" stroke-width="3"/>
  <path
     id="generatedTrail"
     stroke = "#0000ff"
     style="        
        stroke-width:5;
        stroke-dasharray:none;
        stroke-linejoin:round;
        stroke-linecap:round"

     fill="none"
     d="M 40 728 
        Q 512.0 728.0 
          984.0 318.4131412301872"
      />

  <circle
     id="Mouse" fill="#ff0000"
     r="40">
    <animateMotion dur="5s" repeatCount="indefinite">
      <mpath href="#path"/>
    </animateMotion>
  </circle>


  <path
     id="path" fill="none"
     stroke="#00ff00"  stroke-width="5"
     d="M 40.0 728.0 
        Q 197.89013455334322 728.0 
          355.7802691066865 682.1676625692709 
        M 355.7802691066865 682.1676625692709 
            l 0 -20M 355.7802691066865 662.1676625692709 
        Q 359.6216978779753 661.0525728889695 
          363.46312664926404 659.9103533465486 
        M 363.46312664926404 659.9103533465486 
            l 0 -20M 363.46312664926404 639.9103533465486 
        Q 367.2972248644094 638.770313489079 
          371.1313230795547 637.6032472139276 
        M 371.1313230795547 637.6032472139276 
            l 0 -20M 371.1313230795547 617.6032472139276 
        Q 374.957972221806 616.4384483720207 
          378.78462136405733 615.2467280268999 
        M 378.78462136405733 615.2467280268999 
            l 0 -20M 378.78462136405733 595.2467280268999 
        Q 390.21874343859395 591.685838225332 
          401.65286551313056 587.8845853959432 
        M 401.65286551313056 587.8845853959432 
            l 0 -20M 401.65286551313056 567.8845853959432 
        Q 446.65495357955047 552.9237240831334 
          491.65704164597037 534.2395686252969 
        M 491.65704164597037 534.2395686252969 
            l 0 -20M 491.65704164597037 514.2395686252969 
        Q 495.3512907586998 512.7057748017672 
          499.0455398714293 511.1468901861134 
        M 499.0455398714293 511.1468901861134 
            l 0 -40M 499.0455398714293 471.1468901861134 
        Q 502.73086314331715 469.59177206144193 
          506.41618641520506 468.0116842441471 
        M 506.41618641520506 468.0116842441471 
            l 0 -40M 506.41618641520506 428.0116842441471 
        Q 510.0925268246303 426.4354478424525 
          513.7688672340555 424.8343633255032 
        M 513.7688672340555 424.8343633255032 
            l 0 -20M 513.7688672340555 404.8343633255032 
        Q 528.3833652154709 398.469597325858 
          542.9978631968863 391.71215942948356 
        M 542.9978631968863 391.71215942948356 
            l 0 -20M 542.9978631968863 371.71215942948356 
        Q 684.0944165684951 306.47206715853656 
          825.190969940104 204.63081677303433 
        M 825.190969940104 204.63081677303433 
            l 0 -20M 825.190969940104 184.63081677303433 
        Q 828.4343611732394 182.28978851416582 
          831.6777524063748 179.9294200671851 
        M 831.6777524063748 179.9294200671851 
            l 0 -20M 831.6777524063748 159.9294200671851 
        Q 847.7576440908699 148.22732610602594 
          863.837535775365 136.0498659929059 
        M 863.837535775365 136.0498659929059 
            l 0 -20M 863.837535775365 116.0498659929059 
        Q 898.4249377638691 89.8564863112764 
          933.0123397523732 61.46373863985656 
        "
     style="stroke-width:3;
            stroke-dasharray:none;
            stroke-linejoin:round;
            stroke-linecap:round"/>

</svg>
