
<svg
   style="background:#404040"
   width="1024" height="768"
   xmlns="http://www.w3.org/2000/svg">
  <rect
     id="BackGround" style="fill:#404040"
     width="1024" height="768" x="0" y="0" />
  <circle
     id="Hole" fill="#c0c0c0"
     cx="984" cy="40" r="40"/>

   <rect
      id="lightSensor" fill="white"
      width="50" height="50" x="0" y="0">
      <animate
         attributeName="fill" 
         from="white" to="black" 
         begin="0;curveFade.end" dur="0.5"
         calcMode="discrete"
         fill="freeze"/>
   </rect>

  <circle
     id="Mouse" fill="#ff0000"
     r="40">
    <animateMotion 
      begin="0s;curveFade.end"
      dur="3s" 
      id="moveAnimation"
      calcMode="linear"
      fill="freeze">
      <mpath href="#subjectTrail"/>
    </animateMotion>

  </circle>

  <g opacity="0">
    <circle
      id="disableZone" fill="none"
      cx="40" cy="728" r="200"
      stroke="red" stroke-width="3"
      stroke-dasharray="10 10"/>
    <path
      id="generatedTrail"
      stroke="#0000ff"
      style="        
          stroke-width:5;
          stroke-dasharray:none;
          stroke-linejoin:round;
          stroke-linecap:round"
      fill="none"
      d="M 40 728 
          Q 512.0 337.5235860351069 
            984.0 337.5235860351069"/>
    <path
      id="subjectTrail" fill="none"
      stroke="#00ff00"  stroke-width="5" 
      d="M 40.0 728.0 
          Q 194.16028955925313 600.4661927057485 
            348.32057911850626 514.5863020663187 
          M 348.32057911850626 514.5863020663187 
              l 0 20M 348.32057911850626 534.5863020663187 
          Q 351.8149417410021 532.639656268413 
            355.3093043634979 530.7144120955779 
          M 355.3093043634979 530.7144120955779 
              l 0 20M 355.3093043634979 550.7144120955779 
          Q 358.8127510187719 548.7841630096696 
            362.31619767404584 546.8754269658687 
          M 362.31619767404584 546.8754269658687 
              l 0 20M 362.31619767404584 566.8754269658687 
          Q 365.8287214701489 564.961745544678 
            369.3412452662519 563.0696887870381 
          M 369.3412452662519 563.0696887870381 
              l 0 20M 369.3412452662519 583.0696887870381 
          Q 408.57431422215745 561.9363961604283 
            447.80738317806305 543.5009384560406 
          M 447.80738317806305 543.5009384560406 
              l 0 20M 447.80738317806305 563.5009384560406 
          Q 465.9963608344675 554.9540126815729 
            484.1853384908719 546.9869525638319 
          M 484.1853384908719 546.9869525638319 
              l 0 -20M 484.1853384908719 526.9869525638319 
          Q 487.84927346827544 525.3820910491338 
            491.5132084456789 523.8007586891019 
          M 491.5132084456789 523.8007586891019 
              l 0 -20M 491.5132084456789 503.800758689102 
          Q 495.185757440864 502.21570857066246 
            498.85830643604913 500.654298372398 
          M 498.85830643604913 500.654298372398 
              l 0 -100M 498.85830643604913 400.654298372398 
          Q 502.53942193001876 399.08924606654466 
            506.2205374239883 397.5479440932987 
          M 506.2205374239883 397.5479440932987 
              l 0 -60M 506.2205374239883 337.5479440932987 
          Q 513.6082648124813 334.4546646728784 
            520.9959922009742 331.4570457271519 
          M 520.9959922009742 331.4570457271519 
              l 0 -20M 520.9959922009742 311.4570457271519 
          Q 562.2157976333502 294.73183874459505 
            603.4356030657264 280.9846179825656 
          M 603.4356030657264 280.9846179825656 
              l 0 -20M 603.4356030657264 260.9846179825656 
          Q 607.2301350043871 259.7191033178999 
            611.0246669430478 258.4788250434619 
          M 611.0246669430478 258.4788250434619 
              l 0 -20M 611.0246669430478 238.47882504346188 
          Q 614.8267197908425 237.23608848949073 
            618.6287726386372 236.01868846389186 
          M 618.6287726386372 236.01868846389186 
              l 0 -60M 618.6287726386372 176.01868846389186 
          Q 719.7527372812579 143.63925501756546 
            820.8767019238785 129.18316330025806 
          M 820.8767019238785 129.18316330025806 
              l 0 20M 820.8767019238785 149.18316330025806 
          Q 832.7670461079216 147.4833891005187 
            844.6573902919646 146.03141396453577 
          M 844.6573902919646 146.03141396453577 
              l 0 20M 844.6573902919646 166.03141396453577 
          Q 868.5253043104459 163.1168122367639 
            892.3932183289272 161.20069135533663 
          M 892.3932183289272 161.20069135533663 
              l 0 -20M 892.3932183289272 141.20069135533663 
          Q 896.3803904808537 140.88060038248346 
            900.3675626327803 140.58837323782643 
          M 900.3675626327803 140.58837323782643 
              l 0 -20M 900.3675626327803 120.58837323782643 
          Q 904.3568623377828 120.29599016091049 
            908.3461620427854 120.03150065637408 
          M 908.3461620427854 120.03150065637408 
              l 0 -20M 908.3461620427854 100.03150065637408 
          Q 912.3373996105548 99.76688267205395 
            916.3286371783244 99.53018536614604 
          M 916.3286371783244 99.53018536614604 
              l 0 -20M 916.3286371783244 79.53018536614604 
          Q 928.3120624562554 78.81951745157727 
            940.2954877341863 78.36054347360317 
          "
      style="stroke-width:3;
              stroke-dasharray:none;
              stroke-linejoin:round;
              stroke-linecap:round"/>
      <animate 
          id="curveAppear"
          attributeName="opacity" 
          from="0" to="1"
          begin="moveAnimation.end" dur="2s" 
          fill="freeze"/>
      <animate 
            id="curveFade"
            attributeName="opacity" 
            from="1" to="0"
            begin="curveAppear.end" dur="2s" 
            fill="freeze"/>  
    </g>
</svg>
