
<svg
   style="background:#c0c0c0"
   width="1024" height="768"
   xmlns="http://www.w3.org/2000/svg">
  <rect
     id="BackGround" style="fill:#c0c0c0"
     width="1024" height="768" x="0" y="0" />
  <circle
     id="Hole" fill="#000000"
     cx="984" cy="40" r="40"/>
  <circle
     id="Hole" fill="none"
     cx="40" cy="728" r="200"
     stroke="red" stroke-width="3"/>
  <path
     id="generatedTrail"
     stroke = "#0000ff"
     style="        
        stroke-width:5;
        stroke-dasharray:none;
        stroke-linejoin:round;
        stroke-linecap:round"

     fill="none"
     d="M 40 728 
        Q 40.0 562.0 
          984.0 397.1774871669084"
      />
  <circle
     id="Mouse" fill="#ff0000"
     cx="999.5828379470904" cy="314.46793771358847" r="40"/>
  <path
     id="subjectTrail" fill="none"
     stroke="#00ff00"  stroke-width="5"
     d="M 40.0 728.0 
        Q 40.0 632.5695805623984 
          351.981960974398 537.528308111401 
        M 351.981960974398 537.528308111401 
            l 0 -20M 351.981960974398 517.528308111401 
        Q 542.6745755063009 459.4362675475336 
          849.9241637921995 401.4896129379131 
        M 849.9241637921995 401.4896129379131 
            l 0 -20M 849.9241637921995 381.4896129379131 
        Q 874.4910687551363 376.85634405492914 
          899.8031457310084 372.22400465338836 
        M 899.8031457310084 372.22400465338836 
            l 0 -20M 899.8031457310084 352.22400465338836 
        Q 924.3947228886723 347.7235232459534 
          949.6896536803672 343.22391915830434 
        M 949.6896536803672 343.22391915830434 
            l 0 -20M 949.6896536803672 323.22391915830434 
        Q 974.3032588671157 318.84551308864087 
          999.5828379470904 314.46793771358847 
        "
     style="stroke-width:3;
            stroke-dasharray:none;
            stroke-linejoin:round;
            stroke-linecap:round"/>
</svg>
