
<svg
   style="background:#c0c0c0"
   width="1024" height="768"
   xmlns="http://www.w3.org/2000/svg">
  <rect
     id="BackGround" style="fill:#c0c0c0"
     width="1024" height="768" x="0" y="0" />
  <circle
     id="Hole" fill="#000000"
     cx="984" cy="40" r="40"/>
  <circle
     id="Hole" fill="none"
     cx="40" cy="728" r="200"
     stroke="red" stroke-width="3"/>
  <path
     id="generatedTrail"
     stroke = "#0000ff"
     style="        
        stroke-width:5;
        stroke-dasharray:none;
        stroke-linejoin:round;
        stroke-linecap:round"

     fill="none"
     d="M 40 728 
        Q 40.0 354.0 
          904.0 -18.800183515335213"
      />
  <circle
     id="Mouse" fill="#ff0000"
     cx="520.1664205815161" cy="31.043871962209494" r="40"/>
  <path
     id="subjectTrail" fill="none"
     stroke="#00ff00"  stroke-width="5"
     d="M 40.0 728.0 
        Q 40.0 504.4452613738016 
          348.7011859372937 281.31920882598644 
        M 348.7011859372937 281.31920882598644 
            l 0 -60M 348.7011859372937 221.31920882598644 
        Q 368.96270732078386 206.67438888081904 
          390.5540883467861 192.03141568046806 
        M 390.5540883467861 192.03141568046806 
            l 0 -40M 390.5540883467861 152.03141568046806 
        Q 411.2446868973525 137.99934058020938 
          433.1564974737138 123.96896134837641 
        M 433.1564974737138 123.96896134837641 
            l 0 -20M 433.1564974737138 103.96896134837641 
        Q 454.2103065427967 90.48797015030036 
          476.391562008329 77.00854461052526 
        M 476.391562008329 77.00854461052526 
            l 0 -20M 476.391562008329 57.00854461052526 
        Q 497.75602049729076 44.025482049117386 
          520.1664205815161 31.043871962209494 
        "
     style="stroke-width:3;
            stroke-dasharray:none;
            stroke-linejoin:round;
            stroke-linecap:round"/>
</svg>
