
<svg
   style="background:#c0c0c0"
   width="1024" height="768"
   xmlns="http://www.w3.org/2000/svg">
  <rect
     id="BackGround" style="fill:#c0c0c0"
     width="1024" height="768" x="0" y="0" />
  <circle
     id="Hole" fill="#000000"
     cx="984" cy="40" r="40"/>
  <circle
     id="Hole" fill="none"
     cx="40" cy="728" r="200"
     stroke="red" stroke-width="3"/>
  <path
     id="generatedTrail"
     stroke = "#0000ff"
     style="        
        stroke-width:5;
        stroke-dasharray:none;
        stroke-linejoin:round;
        stroke-linecap:round"

     fill="none"
     d="M 40 728 
        Q 472.0 27.075105845531624 
          904.0 27.075105845531624"
      />
  <circle
     id="Mouse" fill="#ff0000"
     cx="1028.2586212870372" cy="301.57273748752823" r="40"/>
  <path
     id="subjectTrail" fill="none"
     stroke="#00ff00"  stroke-width="5"
     d="M 40.0 728.0 
        Q 123.48548334663997 592.5438574579207 
          206.97096669327993 483.2650795741675 
        M 206.97096669327993 483.2650795741675 
            l 0 20M 206.97096669327993 503.2650795741675 
        Q 222.14796728608832 483.3990620314919 
          237.32496787889676 464.3981635745783 
        M 237.32496787889676 464.3981635745783 
            l 0 20M 237.32496787889676 484.3981635745783 
        Q 252.9274717720685 464.8645547870664 
          268.52997566524016 446.2452541481144 
        M 268.52997566524016 446.2452541481144 
            l 0 60M 268.52997566524016 506.2452541481144 
        Q 284.5870136669252 487.0835336978927 
          300.64405166861025 468.8901688322446 
        M 300.64405166861025 468.8901688322446 
            l 0 40M 300.64405166861025 508.8901688322446 
        Q 493.68567933674797 290.16509848885767 
          686.7273070048857 211.4006722981809 
        M 686.7273070048857 211.4006722981809 
            l 0 -20M 686.7273070048857 191.4006722981809 
        Q 709.8746757452335 181.95613311416724 
          733.0220444855813 174.5239612282378 
        M 733.0220444855813 174.5239612282378 
            l 0 20M 733.0220444855813 194.5239612282378 
        Q 781.180077960345 179.06134919281857 
          829.3381114351088 172.30920495739832 
        M 829.3381114351088 172.30920495739832 
            l 0 100M 829.3381114351088 272.3092049573983 
        Q 854.0959473082667 268.8379569285513 
          878.8537831814245 267.6688362802225 
        M 878.8537831814245 267.6688362802225 
            l 0 20M 878.8537831814245 287.6688362802225 
        Q 953.5562022342309 284.14122017345943 
          1028.2586212870372 301.57273748752823 
        "
     style="stroke-width:3;
            stroke-dasharray:none;
            stroke-linejoin:round;
            stroke-linecap:round"/>
</svg>
