
<svg
   style="background:#c0c0c0"
   width="1024" height="768"
   xmlns="http://www.w3.org/2000/svg">
  <rect
     id="BackGround" style="fill:#c0c0c0"
     width="1024" height="768" x="0" y="0" />
  <circle
     id="Hole" fill="#000000"
     cx="984" cy="40" r="40"/>
  <circle
     id="Hole" fill="none"
     cx="40" cy="728" r="200"
     stroke="red" stroke-width="3"/>
  <path
     id="generatedTrail"
     stroke = "#0000ff"
     style="        
        stroke-width:5;
        stroke-dasharray:none;
        stroke-linejoin:round;
        stroke-linecap:round"

     fill="none"
     d="M 40 728 
        Q 512.0 327.81390977969124 
          984.0 327.81390977969124"
      />
  <circle
     id="Mouse" fill="#ff0000"
     cx="1029.9240069985485" cy="148.76101351523664" r="40"/>
  <path
     id="subjectTrail" fill="none"
     stroke="#00ff00"  stroke-width="5"
     d="M 40.0 728.0 
        Q 202.02466457578734 590.6270825511837 
          364.0493291515746 500.4105228808457 
        M 364.0493291515746 500.4105228808457 
            l 0 -60M 364.0493291515746 440.4105228808457 
        Q 385.8916415397317 428.2485580092405 
          407.7339539278889 416.94358208359733 
        M 407.7339539278889 416.94358208359733 
            l 0 -40M 407.7339539278889 376.94358208359733 
        Q 429.9363960498065 365.4522129822719 
          452.13883817172416 354.84632536684285 
        M 452.13883817172416 354.84632536684285 
            l 0 -40M 452.13883817172416 314.84632536684285 
        Q 497.60392240967957 293.1281030557143 
          543.069006647635 275.1229580577696 
        M 543.069006647635 275.1229580577696 
            l 0 -20M 543.069006647635 255.1229580577696 
        Q 566.3126759571475 245.9179682679856 
          589.55634526666 237.68346021750722 
        M 589.55634526666 237.68346021750722 
            l 0 -20M 589.55634526666 217.68346021750722 
        Q 809.7401761326042 139.67918715254962 
          1029.9240069985485 148.76101351523664 
        "
     style="stroke-width:3;
            stroke-dasharray:none;
            stroke-linejoin:round;
            stroke-linecap:round"/>
</svg>
