
<svg
   style="background:#c0c0c0"
   width="1024" height="768"
   xmlns="http://www.w3.org/2000/svg">
  <rect
     id="BackGround" style="fill:#c0c0c0"
     width="1024" height="768" x="0" y="0" />
  <circle
     id="Hole" fill="#000000"
     cx="984" cy="40" r="40"/>
  <circle
     id="Hole" fill="none"
     cx="40" cy="728" r="200"
     stroke="red" stroke-width="3"/>
  <path
     id="generatedTrail"
     stroke = "#0000ff"
     style="        
        stroke-width:5;
        stroke-dasharray:none;
        stroke-linejoin:round;
        stroke-linecap:round"

     fill="none"
     d="M 40 728 
        Q 512.0 387.13418947210357 
          984.0 387.13418947210357"
      />
  <circle
     id="Mouse" fill="#ff0000"
     cx="1008.1067216437223" cy="327.356477340194" r="40"/>
  <path
     id="subjectTrail" fill="none"
     stroke="#00ff00"  stroke-width="5"
     d="M 40.0 728.0 
        Q 144.3560264478933 652.6368611469667 
          248.7120528957866 593.9360055806778 
        M 248.7120528957866 593.9360055806778 
            l 0 -20M 248.7120528957866 573.9360055806778 
        Q 270.50138862278004 561.6793808994547 
          292.2907243497735 550.1491756056586 
        M 292.2907243497735 550.1491756056586 
            l 0 -20M 292.2907243497735 530.1491756056586 
        Q 314.3876550613205 518.4562010854995 
          336.4845857728675 507.51030010296483 
        M 336.4845857728675 507.51030010296483 
            l 0 -20M 336.4845857728675 487.51030010296483 
        Q 381.5896243442348 465.1671388530816 
          426.6946629156022 445.9367657402504 
        M 426.6946629156022 445.9367657402504 
            l 0 -20M 426.6946629156022 425.9367657402504 
        Q 568.6732385928085 365.40470389574034 
          710.6518142700147 335.71482263557516 
        M 710.6518142700147 335.71482263557516 
            l 0 20M 710.6518142700147 355.71482263557516 
        Q 859.3792679568685 324.61364825748683 
          1008.1067216437223 327.356477340194 
        "
     style="stroke-width:3;
            stroke-dasharray:none;
            stroke-linejoin:round;
            stroke-linecap:round"/>
</svg>
