
<svg
   style="background:#c0c0c0"
   width="1024" height="768"
   xmlns="http://www.w3.org/2000/svg">
  <rect
     id="BackGround" style="fill:#c0c0c0"
     width="1024" height="768" x="0" y="0" />
  <circle
     id="Hole" fill="#000000"
     cx="984" cy="40" r="40"/>
  <circle
     id="Hole" fill="none"
     cx="40" cy="728" r="200"
     stroke="red" stroke-width="3"/>
  <path
     id="generatedTrail"
     stroke = "#0000ff"
     style="        
        stroke-width:5;
        stroke-dasharray:none;
        stroke-linejoin:round;
        stroke-linecap:round"

     fill="none"
     d="M 40 728 
        Q 40.0 496.0 
          984.0 264.36239973964547"
      />
  <circle
     id="Mouse" fill="#ff0000"
     cx="978.0737165433728" cy="65.81887720396185" r="40"/>
  <path
     id="subjectTrail" fill="none"
     stroke="#00ff00"  stroke-width="5"
     d="M 40.0 728.0 
        Q 40.0 617.9920024844835 
          252.24845764716403 508.06548673357656 
        M 252.24845764716403 508.06548673357656 
            l 0 -20M 252.24845764716403 488.06548673357656 
        Q 294.9401838915167 465.95483033844425 
          346.2189383288024 443.84747048651263 
        M 346.2189383288024 443.84747048651263 
            l 0 -60M 346.2189383288024 383.84747048651263 
        Q 369.17631649392285 373.9500573000456 
          393.85482012271547 364.0533048502522 
        M 393.85482012271547 364.0533048502522 
            l 0 -60M 393.85482012271547 304.0533048502522 
        Q 439.01664688068405 285.94218165060227 
          489.942392851084 267.83327120817904 
        M 489.942392851084 267.83327120817904 
            l 0 -20M 489.942392851084 247.83327120817904 
        Q 513.4974712259394 239.45721708022478 
          538.2856890561144 231.08163635207728 
        M 538.2856890561144 231.08163635207728 
            l 0 -20M 538.2856890561144 211.08163635207728 
        Q 561.9702278240031 203.0789728359486 
          586.7805412006512 195.07674150247368 
        M 586.7805412006512 195.07674150247368 
            l 0 -20M 586.7805412006512 175.07674150247368 
        Q 756.1846510626234 120.43773491770315 
          978.0737165433728 65.81887720396185 
        "
     style="stroke-width:3;
            stroke-dasharray:none;
            stroke-linejoin:round;
            stroke-linecap:round"/>
</svg>
