
<svg
   style="background:#c0c0c0"
   width="1024" height="768"
   xmlns="http://www.w3.org/2000/svg">
  <rect
     id="BackGround" style="fill:#c0c0c0"
     width="1024" height="768" x="0" y="0" />
  <circle
     id="Hole" fill="#000000"
     cx="984" cy="40" r="40"/>
  <circle
     id="Hole" fill="none"
     cx="40" cy="728" r="200"
     stroke="red" stroke-width="3"/>
  <path
     id="generatedTrail"
     stroke = "#0000ff"
     style="        
        stroke-width:5;
        stroke-dasharray:none;
        stroke-linejoin:round;
        stroke-linecap:round"

     fill="none"
     d="M 40 728 
        Q 472.0 6.262006076418739 
          904.0 6.262006076418739"
      />
  <circle
     id="Mouse" fill="#ff0000"
     cx="586.7258442156634" cy="3.5863483899259307" r="40"/>
  <path
     id="subjectTrail" fill="none"
     stroke="#00ff00"  stroke-width="5"
     d="M 40.0 728.0 
        Q 121.69635981869988 591.5107248925751 
          203.39271963739972 480.833201939247 
        M 203.39271963739972 480.833201939247 
            l 0 20M 203.39271963739972 500.833201939247 
        Q 218.23971022449336 480.719354209219 
          233.0867008115871 461.45799578750484 
        M 233.0867008115871 461.45799578750484 
            l 0 20M 233.0867008115871 481.45799578750484 
        Q 264.0560640442132 441.2806950869567 
          295.02542727683925 404.8125634268996 
        M 295.02542727683925 404.8125634268996 
            l 0 -20M 295.02542727683925 384.8125634268996 
        Q 311.20797563669737 365.75672105294893 
          327.39052399655554 347.7136371899993 
        M 327.39052399655554 347.7136371899993 
            l 0 -20M 327.39052399655554 327.7136371899993 
        Q 344.08257465543954 309.10247266971066 
          360.77462531432354 291.5688433406461 
        M 360.77462531432354 291.5688433406461 
            l 0 -20M 360.77462531432354 271.5688433406461 
        Q 378.01240645965146 253.46196892274122 
          395.25018760497926 236.50423941958695 
        M 395.25018760497926 236.50423941958695 
            l 0 -20M 395.25018760497926 216.50423941958695 
        Q 413.0720346313951 198.97193299495953 
          430.8938816578111 182.66796346798725 
        M 430.8938816578111 182.66796346798725 
            l 0 -20M 430.8938816578111 162.66796346798725 
        Q 468.4492879457893 128.31113172183348 
          506.0046942337674 99.4088258208148 
        M 506.0046942337674 99.4088258208148 
            l 0 -20M 506.0046942337674 79.4088258208148 
        Q 525.8168435511989 64.16157231653409 
          545.6289928686303 50.43233100350756 
        M 545.6289928686303 50.43233100350756 
            l 0 -20M 545.6289928686303 30.432331003507556 
        Q 566.1774185421469 16.19287166194667 
          586.7258442156634 3.5863483899259307 
        "
     style="stroke-width:3;
            stroke-dasharray:none;
            stroke-linejoin:round;
            stroke-linecap:round"/>
</svg>
