
<svg
   style="background:#c0c0c0"
   width="1024" height="768"
   xmlns="http://www.w3.org/2000/svg">
  <rect
     id="BackGround" style="fill:#c0c0c0"
     width="1024" height="768" x="0" y="0" />
  <circle
     id="Hole" fill="#000000"
     cx="984" cy="40" r="40"/>
  <circle
     id="Hole" fill="none"
     cx="40" cy="728" r="200"
     stroke="red" stroke-width="3"/>
  <path
     id="generatedTrail"
     stroke = "#0000ff"
     style="        
        stroke-width:5;
        stroke-dasharray:none;
        stroke-linejoin:round;
        stroke-linecap:round"

     fill="none"
     d="M 40 728 
        Q 512.0 256.1486554433259 
          984.0 256.1486554433259"
      />
  <circle
     id="Mouse" fill="#ff0000"
     cx="991.8490602041661" cy="336.18127638763406" r="40"/>
  <path
     id="subjectTrail" fill="none"
     stroke="#00ff00"  stroke-width="5"
     d="M 40.0 728.0 
        Q 131.86572221982436 636.1632107031905 
          223.7314444396487 562.200686184138 
        M 223.7314444396487 562.200686184138 
            l 0 20M 223.7314444396487 582.200686184138 
        Q 325.1306853879557 500.5625771742678 
          426.52992633626263 440.7010949248051 
        M 426.52992633626263 440.7010949248051 
            l 0 20M 426.52992633626263 460.7010949248051 
        Q 448.05831842700786 447.9917151607435 
          469.5867105177531 436.2639576351377 
        M 469.5867105177531 436.2639576351377 
            l 0 20M 469.5867105177531 456.2639576351377 
        Q 491.540527784679 444.3044464657619 
          513.4943450516049 433.3657367732627 
        M 513.4943450516049 433.3657367732627 
            l 0 20M 513.4943450516049 453.3657367732627 
        Q 558.6612080995077 430.8608941486408 
          603.8280711474106 412.6768206117034 
        M 603.8280711474106 412.6768206117034 
            l 0 20M 603.8280711474106 432.6768206117034 
        Q 772.8633762569491 364.6236017022886 
          941.8986813664877 357.0871950507277 
        M 941.8986813664877 357.0871950507277 
            l 0 -20M 941.8986813664877 337.0871950507277 
        Q 966.873870785327 335.9736810215835 
          991.8490602041661 336.18127638763406 
        "
     style="stroke-width:3;
            stroke-dasharray:none;
            stroke-linejoin:round;
            stroke-linecap:round"/>
</svg>
