
<svg
   style="background:#c0c0c0"
   width="1024" height="768"
   xmlns="http://www.w3.org/2000/svg">
  <rect
     id="BackGround" style="fill:#c0c0c0"
     width="1024" height="768" x="0" y="0" />
  <circle
     id="Hole" fill="#000000"
     cx="984" cy="40" r="40"/>
  <circle
     id="Hole" fill="none"
     cx="40" cy="728" r="200"
     stroke="red" stroke-width="3"/>
  <path
     id="generatedTrail"
     stroke = "#0000ff"
     style="        
        stroke-width:5;
        stroke-dasharray:none;
        stroke-linejoin:round;
        stroke-linecap:round"

     fill="none"
     d="M 40 728 
        Q 512.0 288.7170032983925 
          984.0 288.7170032983925"
      />
  <circle
     id="Mouse" fill="#ff0000"
     cx="936.7510813995518" cy="69.81748835849123" r="40"/>
  <path
     id="subjectTrail" fill="none"
     stroke="#00ff00"  stroke-width="5"
     d="M 40.0 728.0 
        Q 229.9624333458523 551.204942837086 
          419.92486669170455 445.563316314397 
        M 419.92486669170455 445.563316314397 
            l 0 -20M 419.92486669170455 425.563316314397 
        Q 424.2986018420779 423.13100121331763 
          428.6723369924514 420.7364055628087 
        M 428.6723369924514 420.7364055628087 
            l 0 -20M 428.6723369924514 400.7364055628087 
        Q 435.26286856832024 397.1281262080858 
          441.85340014418904 393.6054917099257 
        M 441.85340014418904 393.6054917099257 
            l 0 -20M 441.85340014418904 373.6054917099257 
        Q 448.47977646207596 370.0636982223341 
          455.1061527799629 366.6084837393707 
        M 455.1061527799629 366.6084837393707 
            l 0 -20M 455.1061527799629 346.6084837393707 
        Q 461.7682660012087 343.1346348384179 
          468.43037922245446 339.74830132382596 
        M 468.43037922245446 339.74830132382596 
            l 0 -20M 468.43037922245446 319.74830132382596 
        Q 509.1430533284264 299.05416296033343 
          549.8557274343983 281.62830758770497 
        M 549.8557274343983 281.62830758770497 
            l 0 -20M 549.8557274343983 261.62830758770497 
        Q 552.1540482926764 260.64457935673687 
          554.4523691509545 259.6712666638973 
        M 554.4523691509545 259.6712666638973 
            l 0 -20M 554.4523691509545 239.6712666638973 
        Q 561.3698105602332 236.74180905515038 
          568.2872519695119 233.90670350384312 
        M 568.2872519695119 233.90670350384312 
            l 0 -20M 568.2872519695119 213.90670350384312 
        Q 593.9328403172865 203.39588807520926 
          619.5784286650611 194.18191065291154 
        M 619.5784286650611 194.18191065291154 
            l 0 -20M 619.5784286650611 174.18191065291154 
        Q 706.2391005696646 143.04636158684934 
          792.899772474268 126.71908850894903 
        M 792.899772474268 126.71908850894903 
            l 0 -20M 792.899772474268 106.71908850894903 
        Q 812.611158197838 103.00537189010225 
          832.3225439214082 100.05777158299315 
        M 832.3225439214082 100.05777158299315 
            l 0 -20M 832.3225439214082 80.05777158299315 
        Q 884.53681266048 72.24975662508331 
          936.7510813995518 69.81748835849123 
        "
     style="stroke-width:3;
            stroke-dasharray:none;
            stroke-linejoin:round;
            stroke-linecap:round"/>
</svg>
