
<svg
   style="background:#c0c0c0"
   width="1024" height="768"
   xmlns="http://www.w3.org/2000/svg">
  <rect
     id="BackGround" style="fill:#c0c0c0"
     width="1024" height="768" x="0" y="0" />
  <circle
     id="Hole" fill="#000000"
     cx="984" cy="40" r="40"/>
  <circle
     id="Hole" fill="none"
     cx="40" cy="728" r="200"
     stroke="red" stroke-width="3"/>
  <path
     id="generatedTrail"
     stroke = "#0000ff"
     style="        
        stroke-width:5;
        stroke-dasharray:none;
        stroke-linejoin:round;
        stroke-linecap:round"

     fill="none"
     d="M 40 728 
        Q 512.0 728.0 
          984.0 267.076017735493"
      />
  <circle
     id="Mouse" fill="#ff0000"
     cx="936.1118556878865" cy="72.65425748569328" r="40"/>
  <path
     id="subjectTrail" fill="none"
     stroke="#00ff00"  stroke-width="5"
     d="M 40.0 728.0 
        Q 206.88088908331707 728.0 
          373.76177816663414 670.3819550747618 
        M 373.76177816663414 670.3819550747618 
            l 0 -40M 373.76177816663414 630.3819550747618 
        Q 378.48800634689405 628.7501563163 
          383.2142345271539 627.0721434387791 
        M 383.2142345271539 627.0721434387791 
            l 0 -20M 383.2142345271539 607.0721434387791 
        Q 392.62329278974556 603.731525862185 
          402.0323510523372 600.2077453380839 
        M 402.0323510523372 600.2077453380839 
            l 0 -20M 402.0323510523372 580.2077453380839 
        Q 416.034312282519 574.9638795966738 
          430.03627351270086 569.3143904097672 
        M 430.03627351270086 569.3143904097672 
            l 0 -20M 430.03627351270086 549.3143904097672 
        Q 511.02841008398474 516.6358111549106 
          592.0205466552685 470.38563287861734 
        M 592.0205466552685 470.38563287861734 
            l 0 -20M 592.0205466552685 450.38563287861734 
        Q 596.3624790593461 447.90619282118087 
          600.7044114634238 445.38774855930103 
        M 600.7044114634238 445.38774855930103 
            l 0 20M 600.7044114634238 465.38774855930103 
        Q 609.3377884257133 460.38014442181964 
          617.9711653880028 455.2183323511995 
        M 617.9711653880028 455.2183323511995 
            l 0 -20M 617.9711653880028 435.2183323511995 
        Q 626.5372655862005 430.0967444031304 
          635.1033657843983 424.8233425302001 
        M 635.1033657843983 424.8233425302001 
            l 0 -20M 635.1033657843983 404.8233425302001 
        Q 643.6023161098458 399.59127898585996 
          652.1012664352933 394.2097723339201 
        M 652.1012664352933 394.2097723339201 
            l 0 -20M 652.1012664352933 374.2097723339201 
        Q 709.7399084901524 337.7131787842133 
          767.3785505450116 294.3431667098755 
        M 767.3785505450116 294.3431667098755 
            l 0 -20M 767.3785505450116 274.3431667098755 
        Q 771.3738533027216 271.33691391374623 
          775.3691560604314 268.29763597526767 
        M 775.3691560604314 268.29763597526767 
            l 0 -20M 775.3691560604314 248.29763597526767 
        Q 783.3122655422428 242.25521093891672 
          791.2553750240542 236.08225107334744 
        M 791.2553750240542 236.08225107334744 
            l 0 -20M 791.2553750240542 216.08225107334744 
        Q 803.0525255288387 206.91413665154954 
          814.8496760336233 197.4580838554656 
        M 814.8496760336233 197.4580838554656 
            l 0 -20M 814.8496760336233 177.4580838554656 
        Q 875.4807658607549 128.85899323125568 
          936.1118556878865 72.65425748569328 
        "
     style="stroke-width:3;
            stroke-dasharray:none;
            stroke-linejoin:round;
            stroke-linecap:round"/>
</svg>
