
<svg
   style="background:#c0c0c0"
   width="1024" height="768"
   xmlns="http://www.w3.org/2000/svg">
  <rect
     id="BackGround" style="fill:#c0c0c0"
     width="1024" height="768" x="0" y="0" />
  <circle
     id="Hole" fill="#000000"
     cx="984" cy="40" r="40"/>
  <circle
     id="Hole" fill="none"
     cx="40" cy="728" r="200"
     stroke="red" stroke-width="3"/>
  <path
     id="generatedTrail"
     stroke = "#0000ff"
     style="        
        stroke-width:5;
        stroke-dasharray:none;
        stroke-linejoin:round;
        stroke-linecap:round"

     fill="none"
     d="M 40 728 
        Q 40.0 363.0 
          904.0 -1.7286138306114687"
      />
  <circle
     id="Mouse" fill="#ff0000"
     cx="932.4110427301758" cy="46.375039070785334" r="40"/>
  <path
     id="subjectTrail" fill="none"
     stroke="#00ff00"  stroke-width="5"
     d="M 40.0 728.0 
        Q 40.0 560.6481346517115 
          221.63064639457045 393.3533202818589 
        M 221.63064639457045 393.3533202818589 
            l 0 20M 221.63064639457045 413.3533202818589 
        Q 228.94600726033042 406.61534977754656 
          236.55600179974942 399.8774718189566 
        M 236.55600179974942 399.8774718189566 
            l 0 20M 236.55600179974942 419.8774718189566 
        Q 244.00336118285705 413.28359078826526 
          251.73289542337582 406.68979838992766 
        M 251.73289542337582 406.68979838992766 
            l 0 20M 251.73289542337582 426.68979838992766 
        Q 255.5368332762253 423.444793488289 
          259.40911168220146 420.1998100527162 
        M 259.40911168220146 420.1998100527162 
            l 0 20M 259.40911168220146 440.1998100527162 
        Q 270.78974341551225 430.66279912810063 
          282.76068235008836 421.12597362155236 
        M 282.76068235008836 421.12597362155236 
            l 0 20M 282.76068235008836 441.12597362155236 
        Q 424.68184329843996 328.0623822818718 
          649.5720243119165 215.02485187336413 
        M 649.5720243119165 215.02485187336413 
            l 0 -20M 649.5720243119165 195.02485187336413 
        Q 667.287338031425 186.12052664119585 
          685.5174922089333 177.21636312266153 
        M 685.5174922089333 177.21636312266153 
            l 0 -20M 685.5174922089333 157.21636312266153 
        Q 798.9907366514708 101.79256836718176 
          932.4110427301758 46.375039070785334 
        "
     style="stroke-width:3;
            stroke-dasharray:none;
            stroke-linejoin:round;
            stroke-linecap:round"/>
</svg>
