
<svg
   style="background:#c0c0c0"
   width="1024" height="768"
   xmlns="http://www.w3.org/2000/svg">
  <rect
     id="BackGround" style="fill:#c0c0c0"
     width="1024" height="768" x="0" y="0" />
  <circle
     id="Hole" fill="#000000"
     cx="984" cy="40" r="40"/>
  <circle
     id="Hole" fill="none"
     cx="40" cy="728" r="200"
     stroke="red" stroke-width="3"/>
  <path
     id="generatedTrail"
     stroke = "#0000ff"
     style="        
        stroke-width:5;
        stroke-dasharray:none;
        stroke-linejoin:round;
        stroke-linecap:round"

     fill="none"
     d="M 40 728 
        Q 512.0 728.0 
          984.0 329.13350609409054"
      />
  <circle
     id="Mouse" fill="#ff0000"
     cx="979.9562509673932" cy="92.5433820034454" r="40"/>
  <path
     id="subjectTrail" fill="none"
     stroke="#00ff00"  stroke-width="5"
     d="M 40.0 728.0 
        Q 226.7101824416807 728.0 
          413.42036488336134 665.5863523238728 
        M 413.42036488336134 665.5863523238728 
            l 0 -20M 413.42036488336134 645.5863523238728 
        Q 418.1624316235184 644.0011699899137 
          422.9044983636755 642.3757271820766 
        M 422.9044983636755 642.3757271820766 
            l 0 -20M 422.9044983636755 622.3757271820766 
        Q 427.6343531263106 620.7544702855984 
          432.36420788894566 619.0931600093033 
        M 432.36420788894566 619.0931600093033 
            l 0 -20M 432.36420788894566 599.0931600093033 
        Q 441.7865829698277 595.7836527760929 
          451.2089580507097 592.3151941510012 
        M 451.2089580507097 592.3151941510012 
            l 0 -20M 451.2089580507097 572.3151941510012 
        Q 460.58046837523676 568.8654592873154 
          469.9519786997638 565.2584845325282 
        M 469.9519786997638 565.2584845325282 
            l 0 -20M 469.9519786997638 545.2584845325282 
        Q 497.7499764337235 534.5593898735161 
          525.5479741676832 522.4768225300145 
        M 525.5479741676832 522.4768225300145 
            l 0 -20M 525.5479741676832 502.4768225300145 
        Q 597.2188468379354 471.3246455317436 
          668.8897195081876 430.9758336803608 
        M 668.8897195081876 430.9758336803608 
            l 0 -20M 668.8897195081876 410.9758336803608 
        Q 677.5891542050141 406.0782812895785 
          686.2885889018405 401.0452331644051 
        M 686.2885889018405 401.0452331644051 
            l 0 -20M 686.2885889018405 381.0452331644051 
        Q 690.616467960636 378.54134361962883 
          694.9443470194315 376.0039194238857 
        M 694.9443470194315 376.0039194238857 
            l 0 -20M 694.9443470194315 356.0039194238857 
        Q 703.5564309802467 350.9546770765206 
          712.1685149410619 345.7726463503203 
        M 712.1685149410619 345.7726463503203 
            l 0 -20M 712.1685149410619 325.7726463503203 
        Q 724.9775760749816 318.065226326112 
          737.7866372089013 310.06405611253774 
        M 737.7866372089013 310.06405611253774 
            l 0 -20M 737.7866372089013 290.06405611253774 
        Q 835.6418593909029 228.93886662523232 
          933.4970815729046 150.66970022795778 
        M 933.4970815729046 150.66970022795778 
            l 0 -20M 933.4970815729046 130.66970022795778 
        Q 956.7266662701488 112.08959597326009 
          979.9562509673932 92.5433820034454 
        "
     style="stroke-width:3;
            stroke-dasharray:none;
            stroke-linejoin:round;
            stroke-linecap:round"/>
</svg>
