
<svg
   style="background:#c0c0c0"
   width="1024" height="768"
   xmlns="http://www.w3.org/2000/svg">
  <rect
     id="BackGround" style="fill:#c0c0c0"
     width="1024" height="768" x="0" y="0" />
  <circle
     id="Hole" fill="#000000"
     cx="984" cy="40" r="40"/>
  <circle
     id="Hole" fill="none"
     cx="40" cy="728" r="200"
     stroke="red" stroke-width="3"/>
  <path
     id="generatedTrail"
     stroke = "#0000ff"
     style="        
        stroke-width:5;
        stroke-dasharray:none;
        stroke-linejoin:round;
        stroke-linecap:round"

     fill="none"
     d="M 40 728 
        Q 40.0 366.0 
          904.0 4.064206428389465"
      />
  <circle
     id="Mouse" fill="#ff0000"
     cx="936.1131417859135" cy="70.73453239956865" r="40"/>
  <path
     id="subjectTrail" fill="none"
     stroke="#00ff00"  stroke-width="5"
     d="M 40.0 728.0 
        Q 40.0 529.1385702016603 
          300.7340296227539 330.2965163301743 
        M 300.7340296227539 330.2965163301743 
            l 0 20M 300.7340296227539 350.2965163301743 
        Q 320.2409037130527 335.4201040937679 
          341.20718890256757 320.5438003105724 
        M 341.20718890256757 320.5438003105724 
            l 0 20M 341.20718890256757 340.5438003105724 
        Q 349.3263387905996 334.7829829266676 
          357.66434333195014 329.02218180650783 
        M 357.66434333195014 329.02218180650783 
            l 0 20M 357.66434333195014 349.02218180650783 
        Q 365.85583126706337 343.36261030611473 
          374.2585499430502 337.7030545029108 
        M 374.2585499430502 337.7030545029108 
            l 0 20M 374.2585499430502 357.7030545029108 
        Q 587.2965186791073 214.2137483919523 
          936.1131417859135 70.73453239956865 
        "
     style="stroke-width:3;
            stroke-dasharray:none;
            stroke-linejoin:round;
            stroke-linecap:round"/>
</svg>
