
<svg
   style="background:#c0c0c0"
   width="1024" height="768"
   xmlns="http://www.w3.org/2000/svg">
  <rect
     id="BackGround" style="fill:#c0c0c0"
     width="1024" height="768" x="0" y="0" />
  <circle
     id="Hole" fill="#000000"
     cx="984" cy="40" r="40"/>
  <circle
     id="Hole" fill="none"
     cx="40" cy="728" r="200"
     stroke="red" stroke-width="3"/>
  <path
     id="generatedTrail"
     stroke = "#0000ff"
     style="        
        stroke-width:5;
        stroke-dasharray:none;
        stroke-linejoin:round;
        stroke-linecap:round"

     fill="none"
     d="M 40 728 
        Q 472.0 27.450405029774757 
          904.0 27.450405029774757"
      />
  <circle
     id="Mouse" fill="#ff0000"
     cx="991.6421726738475" cy="114.65878501216875" r="40"/>
  <path
     id="subjectTrail" fill="none"
     stroke="#00ff00"  stroke-width="5"
     d="M 40.0 728.0 
        Q 202.52702276493625 464.4392593294151 
          365.0540455298725 300.0353299989035 
        M 365.0540455298725 300.0353299989035 
            l 0 20M 365.0540455298725 320.0353299989035 
        Q 379.2556062711627 305.6697657451924 
          393.4571670124529 292.06128457797575 
        M 393.4571670124529 292.06128457797575 
            l 0 20M 393.4571670124529 312.06128457797575 
        Q 397.0672791972581 308.60193637157596 
          400.67739138206326 305.1915111322791 
        M 400.67739138206326 305.1915111322791 
            l 0 20M 400.67739138206326 325.1915111322791 
        Q 404.31201744191657 321.7579279594063 
          407.9466435017698 318.37393441618684 
        M 407.9466435017698 318.37393441618684 
            l 0 20M 407.9466435017698 338.37393441618684 
        Q 415.2906942708317 331.53630656277744 
          422.6347450398936 324.90114034151946 
        M 422.6347450398936 324.90114034151946 
            l 0 20M 422.6347450398936 344.90114034151946 
        Q 430.0806216767633 338.1739769949998 
          437.52649831363294 331.65492849631386 
        M 437.52649831363294 331.65492849631386 
            l 0 20M 437.52649831363294 351.65492849631386 
        Q 448.89169566879116 341.7044181173828 
          460.2568930239495 332.23877778501287 
        M 460.2568930239495 332.23877778501287 
            l 0 20M 460.2568930239495 352.23877778501287 
        Q 467.9681871163044 345.81633441739007 
          475.67948120865935 339.6171073603786 
        M 475.67948120865935 339.6171073603786 
            l 0 20M 475.67948120865935 359.6171073603786 
        Q 487.4540696359068 350.1513359491012 
          499.2286580631543 341.20599518554866 
        M 499.2286580631543 341.20599518554866 
            l 0 20M 499.2286580631543 361.20599518554866 
        Q 621.8841317748535 268.0226949245298 
          744.5396054865525 231.31296703078607 
        M 744.5396054865525 231.31296703078607 
            l 0 -20M 744.5396054865525 211.31296703078607 
        Q 754.1428489732344 208.43879888626378 
          763.7460924599163 205.9108149663288 
        M 763.7460924599163 205.9108149663288 
            l 0 -20M 763.7460924599163 185.9108149663288 
        Q 773.4376328796958 183.35958752170757 
          783.1291732994755 181.16093954290312 
        M 783.1291732994755 181.16093954290312 
            l 0 -20M 783.1291732994755 161.16093954290312 
        Q 797.8119066570082 157.82997659773713 
          812.4946400145409 155.30826832688342 
        M 812.4946400145409 155.30826832688342 
            l 0 -20M 812.4946400145409 135.30826832688342 
        Q 832.2866841185036 131.90905374614198 
          852.0787282224661 129.98029739673382 
        M 852.0787282224661 129.98029739673382 
            l 0 -20M 852.0787282224661 109.98029739673383 
        Q 921.8604504481568 103.17999222822979 
          991.6421726738475 114.65878501216875 
        "
     style="stroke-width:3;
            stroke-dasharray:none;
            stroke-linejoin:round;
            stroke-linecap:round"/>
</svg>
