
<svg
   style="background:#c0c0c0"
   width="1024" height="768"
   xmlns="http://www.w3.org/2000/svg">
  <rect
     id="BackGround" style="fill:#c0c0c0"
     width="1024" height="768" x="0" y="0" />
  <circle
     id="Hole" fill="#000000"
     cx="984" cy="40" r="40"/>
  <circle
     id="Hole" fill="none"
     cx="40" cy="728" r="200"
     stroke="red" stroke-width="3"/>
  <path
     id="generatedTrail"
     stroke = "#0000ff"
     style="        
        stroke-width:5;
        stroke-dasharray:none;
        stroke-linejoin:round;
        stroke-linecap:round"

     fill="none"
     d="M 40 728 
        Q 512.0 728.0 
          984.0 352.3105106136474"
      />
  <circle
     id="Mouse" fill="#ff0000"
     cx="980.3650403911007" cy="95.19819473145418" r="40"/>
  <path
     id="subjectTrail" fill="none"
     stroke="#00ff00"  stroke-width="5"
     d="M 40.0 728.0 
        Q 395.1654566666988 728.0 
          750.3309133333976 515.2808997975535 
        M 750.3309133333976 515.2808997975535 
            l 0 -20M 750.3309133333976 495.2808997975535 
        Q 754.620402305804 492.7117979397822 
          758.9098912782104 490.11166791223536 
        M 758.9098912782104 490.11166791223536 
            l 0 -20M 758.9098912782104 470.11166791223536 
        Q 763.1856861307012 467.51983875517027 
          767.461480983192 464.89717922589097 
        M 767.461480983192 464.89717922589097 
            l 0 -20M 767.461480983192 444.89717922589097 
        Q 775.9720397016744 439.6770274897719 
          784.4825984201566 434.33473483202056 
        M 784.4825984201566 434.33473483202056 
            l 0 -20M 784.4825984201566 414.33473483202056 
        Q 788.7173948930938 411.67644612821164 
          792.9521913660311 408.98791545057867 
        M 792.9521913660311 408.98791545057867 
            l 0 -20M 792.9521913660311 388.98791545057867 
        Q 801.3809197229417 383.63679765641666 
          809.8096480798523 378.1658764569123 
        M 809.8096480798523 378.1658764569123 
            l 0 -20M 809.8096480798523 358.1658764569123 
        Q 822.3509559205578 350.025561093804 
          834.8922637612633 341.62001080893606 
        M 834.8922637612633 341.62001080893606 
            l 0 -20M 834.8922637612633 321.62001080893606 
        Q 879.8460260492988 291.49068823703834 
          924.7997883373341 257.9535418214721 
        M 924.7997883373341 257.9535418214721 
            l 0 -40M 924.7997883373341 217.95354182147207 
        Q 928.8073998653452 214.96371743857736 
          932.8150113933565 211.94680883884268 
        M 932.8150113933565 211.94680883884268 
            l 0 -20M 932.8150113933565 191.94680883884268 
        Q 940.7913568913336 185.94225845787207 
          948.7677023893107 179.83041962904286 
        M 948.7677023893107 179.83041962904286 
            l 0 -40M 948.7677023893107 139.83041962904286 
        Q 952.7365411727682 136.78931477867616 
          956.7053799562256 133.72164724382372 
        M 956.7053799562256 133.72164724382372 
            l 0 -20M 956.7053799562256 113.72164724382372 
        Q 968.5352101736631 104.57791828912042 
          980.3650403911007 95.19819473145418 
        "
     style="stroke-width:3;
            stroke-dasharray:none;
            stroke-linejoin:round;
            stroke-linecap:round"/>
</svg>
