
<svg
   style="background:#c0c0c0"
   width="1024" height="768"
   xmlns="http://www.w3.org/2000/svg">
  <rect
     id="BackGround" style="fill:#c0c0c0"
     width="1024" height="768" x="0" y="0" />
  <circle
     id="Hole" fill="#000000"
     cx="984" cy="40" r="40"/>
  <circle
     id="Hole" fill="none"
     cx="40" cy="728" r="200"
     stroke="red" stroke-width="3"/>
  <path
     id="generatedTrail"
     stroke = "#0000ff"
     style="        
        stroke-width:5;
        stroke-dasharray:none;
        stroke-linejoin:round;
        stroke-linecap:round"

     fill="none"
     d="M 40 728 
        Q 40.0 354.0 
          904.0 -18.5052262796078"
      />
  <circle
     id="Mouse" fill="#ff0000"
     cx="930.8312525281464" cy="50.01553654053624" r="40"/>
  <path
     id="subjectTrail" fill="none"
     stroke="#00ff00"  stroke-width="5"
     d="M 40.0 728.0 
        Q 40.0 495.86310585263357 
          372.85790634182536 264.30207657913815 
        M 372.85790634182536 264.30207657913815 
            l 0 20M 372.85790634182536 284.30207657913815 
        Q 372.85790634182536 284.30207657913815 
          372.85790634182536 284.30207657913815 
        M 372.85790634182536 284.30207657913815 
            l 0 20M 372.85790634182536 304.30207657913815 
        Q 381.0330172389373 298.61485372009577 
          389.40891182454436 292.92797822931846 
        M 389.40891182454436 292.92797822931846 
            l 0 20M 389.40891182454436 312.92797822931846 
        Q 393.54554874218707 310.11937804210856 
          397.7311591244705 307.31086258203743 
        M 397.7311591244705 307.31086258203743 
            l 0 20M 397.7311591244705 327.31086258203743 
        Q 604.5158071756695 188.55980170562512 
          930.8312525281464 50.01553654053624 
        "
     style="stroke-width:3;
            stroke-dasharray:none;
            stroke-linejoin:round;
            stroke-linecap:round"/>
</svg>
